<mxfile host="app.diagrams.net" agent="Mozilla/5.0 (X11; Linux x86_64) AppleWebKit/537.36 (KHTML, like Gecko) Chrome/139.0.0.0 Safari/537.36" version="28.2.7">
  <diagram name="Page-1" id="3xObpVl5ePmmUbp0tBWo">
    <mxGraphModel dx="702" dy="490" grid="1" gridSize="10" guides="1" tooltips="1" connect="1" arrows="1" fold="1" page="1" pageScale="1" pageWidth="827" pageHeight="1169" math="0" shadow="0">
      <root>
        <mxCell id="0" />
        <mxCell id="1" parent="0" />
        <mxCell id="sI21drN1dJWYwS98hzrH-1" value="Traffic (packet flow / network collector)" style="rounded=0;whiteSpace=wrap;html=1;fillColor=#e51400;fontColor=#ffffff;strokeColor=#B20000;" vertex="1" parent="1">
          <mxGeometry x="290" y="150" width="280" height="20" as="geometry" />
        </mxCell>
        <mxCell id="sI21drN1dJWYwS98hzrH-2" value="Data processing (feature extraction)" style="rounded=0;whiteSpace=wrap;html=1;fillColor=#ffcc99;strokeColor=#36393d;" vertex="1" parent="1">
          <mxGeometry x="360" y="190" width="120" height="30" as="geometry" />
        </mxCell>
        <mxCell id="sI21drN1dJWYwS98hzrH-4" value="" style="endArrow=none;html=1;rounded=0;fillColor=#ffff88;strokeColor=#36393d;" edge="1" parent="1">
          <mxGeometry width="50" height="50" relative="1" as="geometry">
            <mxPoint x="120" y="240" as="sourcePoint" />
            <mxPoint x="680" y="240" as="targetPoint" />
          </mxGeometry>
        </mxCell>
        <mxCell id="sI21drN1dJWYwS98hzrH-8" value="..." style="text;html=1;whiteSpace=wrap;strokeColor=#B09500;fillColor=#e3c800;align=center;verticalAlign=middle;rounded=0;fontColor=#000000;" vertex="1" parent="1">
          <mxGeometry x="480" y="290" width="60" height="20" as="geometry" />
        </mxCell>
        <mxCell id="sI21drN1dJWYwS98hzrH-10" value="Pod Model&lt;div&gt;(FastAPI)&lt;/div&gt;" style="rounded=0;whiteSpace=wrap;html=1;fillColor=#e3c800;fontColor=#000000;strokeColor=#B09500;" vertex="1" parent="1">
          <mxGeometry x="70" y="280" width="120" height="40" as="geometry" />
        </mxCell>
        <mxCell id="sI21drN1dJWYwS98hzrH-11" value="Pod Model&lt;div&gt;(FastAPI)&lt;/div&gt;" style="rounded=0;whiteSpace=wrap;html=1;fillColor=#e3c800;fontColor=#000000;strokeColor=#B09500;" vertex="1" parent="1">
          <mxGeometry x="310" y="280" width="120" height="40" as="geometry" />
        </mxCell>
        <mxCell id="sI21drN1dJWYwS98hzrH-12" value="Pod Model&lt;div&gt;(FastAPI)&lt;/div&gt;" style="rounded=0;whiteSpace=wrap;html=1;fillColor=#e3c800;fontColor=#000000;strokeColor=#B09500;" vertex="1" parent="1">
          <mxGeometry x="620" y="280" width="120" height="40" as="geometry" />
        </mxCell>
        <mxCell id="sI21drN1dJWYwS98hzrH-15" value="/predict" style="text;html=1;whiteSpace=wrap;strokeColor=#005700;fillColor=#008a00;align=center;verticalAlign=middle;rounded=0;fontColor=#ffffff;" vertex="1" parent="1">
          <mxGeometry x="90" y="340" width="60" height="30" as="geometry" />
        </mxCell>
        <mxCell id="sI21drN1dJWYwS98hzrH-19" value="/predict" style="text;html=1;whiteSpace=wrap;strokeColor=#005700;fillColor=#008a00;align=center;verticalAlign=middle;rounded=0;fontColor=#ffffff;" vertex="1" parent="1">
          <mxGeometry x="330" y="340" width="60" height="30" as="geometry" />
        </mxCell>
        <mxCell id="sI21drN1dJWYwS98hzrH-21" value="/predict" style="text;html=1;whiteSpace=wrap;strokeColor=#005700;fillColor=#008a00;align=center;verticalAlign=middle;rounded=0;fontColor=#ffffff;" vertex="1" parent="1">
          <mxGeometry x="650" y="340" width="60" height="30" as="geometry" />
        </mxCell>
        <mxCell id="sI21drN1dJWYwS98hzrH-22" value="" style="endArrow=none;html=1;rounded=0;fillColor=#008a00;strokeColor=#005700;" edge="1" parent="1">
          <mxGeometry width="50" height="50" relative="1" as="geometry">
            <mxPoint x="120" y="380" as="sourcePoint" />
            <mxPoint x="680" y="380" as="targetPoint" />
          </mxGeometry>
        </mxCell>
        <mxCell id="sI21drN1dJWYwS98hzrH-26" value="" style="endArrow=classic;html=1;rounded=0;fillColor=#008a00;strokeColor=#005700;" edge="1" parent="1">
          <mxGeometry width="50" height="50" relative="1" as="geometry">
            <mxPoint x="419.5" y="380" as="sourcePoint" />
            <mxPoint x="420" y="400" as="targetPoint" />
          </mxGeometry>
        </mxCell>
        <mxCell id="sI21drN1dJWYwS98hzrH-85" value="" style="edgeStyle=orthogonalEdgeStyle;rounded=0;orthogonalLoop=1;jettySize=auto;html=1;strokeWidth=3;fillColor=#dae8fc;gradientColor=#7ea6e0;strokeColor=#6c8ebf;" edge="1" parent="1" source="sI21drN1dJWYwS98hzrH-27">
          <mxGeometry relative="1" as="geometry">
            <mxPoint x="490" y="415" as="targetPoint" />
          </mxGeometry>
        </mxCell>
        <mxCell id="sI21drN1dJWYwS98hzrH-27" value="Results" style="text;html=1;whiteSpace=wrap;strokeColor=#6c8ebf;fillColor=#dae8fc;align=center;verticalAlign=middle;rounded=0;gradientColor=#7ea6e0;" vertex="1" parent="1">
          <mxGeometry x="390" y="400" width="60" height="30" as="geometry" />
        </mxCell>
        <mxCell id="sI21drN1dJWYwS98hzrH-81" value="" style="edgeStyle=orthogonalEdgeStyle;rounded=0;orthogonalLoop=1;jettySize=auto;html=1;strokeWidth=3;fillColor=#d5e8d4;strokeColor=#82b366;gradientColor=#97d077;" edge="1" parent="1" source="sI21drN1dJWYwS98hzrH-34">
          <mxGeometry relative="1" as="geometry">
            <mxPoint x="580" y="455" as="targetPoint" />
          </mxGeometry>
        </mxCell>
        <mxCell id="sI21drN1dJWYwS98hzrH-34" value="ElasAlert2" style="text;html=1;whiteSpace=wrap;strokeColor=#82b366;fillColor=#d5e8d4;align=center;verticalAlign=middle;rounded=0;gradientColor=#97d077;" vertex="1" parent="1">
          <mxGeometry x="480" y="440" width="60" height="30" as="geometry" />
        </mxCell>
        <mxCell id="sI21drN1dJWYwS98hzrH-38" value="pfSense API / Script python" style="text;html=1;whiteSpace=wrap;strokeColor=#996185;fillColor=#e6d0de;align=center;verticalAlign=middle;rounded=0;gradientColor=#d5739d;" vertex="1" parent="1">
          <mxGeometry x="190" y="440" width="160" height="30" as="geometry" />
        </mxCell>
        <mxCell id="sI21drN1dJWYwS98hzrH-45" value="" style="endArrow=classic;startArrow=classic;html=1;rounded=0;exitX=1;exitY=0.5;exitDx=0;exitDy=0;fillColor=#1ba1e2;strokeColor=#006EAF;" edge="1" parent="1" source="sI21drN1dJWYwS98hzrH-38" target="sI21drN1dJWYwS98hzrH-34">
          <mxGeometry width="50" height="50" relative="1" as="geometry">
            <mxPoint x="390" y="700" as="sourcePoint" />
            <mxPoint x="440" y="650" as="targetPoint" />
            <Array as="points">
              <mxPoint x="420" y="440" />
            </Array>
          </mxGeometry>
        </mxCell>
        <mxCell id="sI21drN1dJWYwS98hzrH-49" value="" style="endArrow=none;html=1;rounded=0;fillColor=#1ba1e2;strokeColor=#006EAF;" edge="1" parent="1">
          <mxGeometry width="50" height="50" relative="1" as="geometry">
            <mxPoint x="420" y="460" as="sourcePoint" />
            <mxPoint x="420" y="430" as="targetPoint" />
          </mxGeometry>
        </mxCell>
        <mxCell id="sI21drN1dJWYwS98hzrH-54" value="" style="edgeStyle=orthogonalEdgeStyle;rounded=0;orthogonalLoop=1;jettySize=auto;html=1;fillColor=#e6d0de;gradientColor=#d5739d;strokeColor=#996185;strokeWidth=3;" edge="1" parent="1">
          <mxGeometry relative="1" as="geometry">
            <mxPoint x="190" y="454.5" as="sourcePoint" />
            <mxPoint x="160" y="454.5" as="targetPoint" />
          </mxGeometry>
        </mxCell>
        <mxCell id="sI21drN1dJWYwS98hzrH-56" value="" style="endArrow=classic;html=1;rounded=0;fillColor=#1ba1e2;strokeColor=#006EAF;" edge="1" parent="1">
          <mxGeometry width="50" height="50" relative="1" as="geometry">
            <mxPoint x="420" y="440" as="sourcePoint" />
            <mxPoint x="420" y="490" as="targetPoint" />
          </mxGeometry>
        </mxCell>
        <mxCell id="sI21drN1dJWYwS98hzrH-57" value="" style="verticalAlign=top;verticalLabelPosition=bottom;labelPosition=center;align=center;html=1;outlineConnect=0;fillColor=#f0a30a;strokeColor=#BD7000;gradientDirection=north;strokeWidth=2;shape=mxgraph.networks.video_projector_screen;fontColor=#000000;" vertex="1" parent="1">
          <mxGeometry x="365" y="490" width="110" height="80" as="geometry" />
        </mxCell>
        <mxCell id="sI21drN1dJWYwS98hzrH-58" value="Web interface&lt;div&gt;(logs + metrics)&lt;/div&gt;" style="text;html=1;whiteSpace=wrap;strokeColor=#d79b00;fillColor=#ffcd28;align=center;verticalAlign=middle;rounded=0;gradientColor=#ffa500;" vertex="1" parent="1">
          <mxGeometry x="370" y="500" width="100" height="30" as="geometry" />
        </mxCell>
        <mxCell id="sI21drN1dJWYwS98hzrH-62" value="" style="endArrow=none;html=1;rounded=0;fillColor=#ffff88;strokeColor=#36393d;" edge="1" parent="1">
          <mxGeometry width="50" height="50" relative="1" as="geometry">
            <mxPoint x="120" y="280" as="sourcePoint" />
            <mxPoint x="120" y="240" as="targetPoint" />
          </mxGeometry>
        </mxCell>
        <mxCell id="sI21drN1dJWYwS98hzrH-63" value="" style="endArrow=none;html=1;rounded=0;fillColor=#ffff88;strokeColor=#36393d;" edge="1" parent="1">
          <mxGeometry width="50" height="50" relative="1" as="geometry">
            <mxPoint x="360" y="280" as="sourcePoint" />
            <mxPoint x="360" y="240" as="targetPoint" />
          </mxGeometry>
        </mxCell>
        <mxCell id="sI21drN1dJWYwS98hzrH-65" value="" style="endArrow=none;html=1;rounded=0;fillColor=#ffff88;strokeColor=#36393d;" edge="1" parent="1">
          <mxGeometry width="50" height="50" relative="1" as="geometry">
            <mxPoint x="680" y="280" as="sourcePoint" />
            <mxPoint x="680" y="240" as="targetPoint" />
          </mxGeometry>
        </mxCell>
        <mxCell id="sI21drN1dJWYwS98hzrH-66" value="" style="endArrow=none;html=1;rounded=0;entryX=0.5;entryY=1;entryDx=0;entryDy=0;" edge="1" parent="1" target="sI21drN1dJWYwS98hzrH-15">
          <mxGeometry width="50" height="50" relative="1" as="geometry">
            <mxPoint x="120" y="380" as="sourcePoint" />
            <mxPoint x="100" y="430" as="targetPoint" />
          </mxGeometry>
        </mxCell>
        <mxCell id="sI21drN1dJWYwS98hzrH-67" value="" style="endArrow=none;html=1;rounded=0;entryX=0.5;entryY=1;entryDx=0;entryDy=0;" edge="1" parent="1" target="sI21drN1dJWYwS98hzrH-19">
          <mxGeometry width="50" height="50" relative="1" as="geometry">
            <mxPoint x="360" y="380" as="sourcePoint" />
            <mxPoint x="360" y="430" as="targetPoint" />
          </mxGeometry>
        </mxCell>
        <mxCell id="sI21drN1dJWYwS98hzrH-68" value="" style="endArrow=none;html=1;rounded=0;entryX=0.5;entryY=1;entryDx=0;entryDy=0;" edge="1" parent="1" target="sI21drN1dJWYwS98hzrH-21">
          <mxGeometry width="50" height="50" relative="1" as="geometry">
            <mxPoint x="680" y="380" as="sourcePoint" />
            <mxPoint x="680" y="430" as="targetPoint" />
          </mxGeometry>
        </mxCell>
        <mxCell id="sI21drN1dJWYwS98hzrH-69" value="" style="endArrow=classic;html=1;rounded=0;exitX=0.5;exitY=1;exitDx=0;exitDy=0;fillColor=#fff2cc;gradientColor=#ffd966;strokeColor=#d6b656;" edge="1" parent="1" source="sI21drN1dJWYwS98hzrH-2">
          <mxGeometry width="50" height="50" relative="1" as="geometry">
            <mxPoint x="430" y="340" as="sourcePoint" />
            <mxPoint x="420" y="240" as="targetPoint" />
          </mxGeometry>
        </mxCell>
        <mxCell id="sI21drN1dJWYwS98hzrH-73" value="" style="endArrow=classic;html=1;rounded=0;entryX=0.5;entryY=0;entryDx=0;entryDy=0;fillColor=#f8cecc;gradientColor=#ea6b66;strokeColor=#b85450;" edge="1" parent="1" target="sI21drN1dJWYwS98hzrH-2">
          <mxGeometry width="50" height="50" relative="1" as="geometry">
            <mxPoint x="420" y="172" as="sourcePoint" />
            <mxPoint x="440" y="200" as="targetPoint" />
          </mxGeometry>
        </mxCell>
        <mxCell id="sI21drN1dJWYwS98hzrH-74" value="" style="endArrow=classic;html=1;rounded=0;exitX=0.5;exitY=1;exitDx=0;exitDy=0;fillColor=#ffff88;strokeColor=#36393d;" edge="1" parent="1">
          <mxGeometry width="50" height="50" relative="1" as="geometry">
            <mxPoint x="120" y="320" as="sourcePoint" />
            <mxPoint x="120" y="340" as="targetPoint" />
          </mxGeometry>
        </mxCell>
        <mxCell id="sI21drN1dJWYwS98hzrH-76" value="" style="endArrow=classic;html=1;rounded=0;exitX=0.5;exitY=1;exitDx=0;exitDy=0;fillColor=#ffff88;strokeColor=#36393d;" edge="1" parent="1">
          <mxGeometry width="50" height="50" relative="1" as="geometry">
            <mxPoint x="360" y="320" as="sourcePoint" />
            <mxPoint x="360" y="340" as="targetPoint" />
          </mxGeometry>
        </mxCell>
        <mxCell id="sI21drN1dJWYwS98hzrH-77" value="" style="endArrow=classic;html=1;rounded=0;exitX=0.5;exitY=1;exitDx=0;exitDy=0;fillColor=#ffff88;strokeColor=#36393d;" edge="1" parent="1">
          <mxGeometry width="50" height="50" relative="1" as="geometry">
            <mxPoint x="680" y="320" as="sourcePoint" />
            <mxPoint x="680" y="340" as="targetPoint" />
          </mxGeometry>
        </mxCell>
        <mxCell id="sI21drN1dJWYwS98hzrH-87" value="&lt;b&gt;&lt;font style=&quot;background-color: light-dark(rgb(255, 255, 255), rgb(255, 255, 255)); color: light-dark(rgb(0, 0, 0), rgb(0, 0, 0));&quot;&gt;(Container)&lt;/font&gt;&lt;/b&gt;" style="text;html=1;whiteSpace=wrap;strokeColor=none;fillColor=none;align=center;verticalAlign=middle;rounded=0;" vertex="1" parent="1">
          <mxGeometry x="360" y="260" width="70" height="30" as="geometry" />
        </mxCell>
        <mxCell id="sI21drN1dJWYwS98hzrH-88" value="&lt;b&gt;&lt;font style=&quot;background-color: light-dark(rgb(255, 255, 255), rgb(255, 255, 255)); color: light-dark(rgb(0, 0, 0), rgb(0, 0, 0));&quot;&gt;(Container)&lt;/font&gt;&lt;/b&gt;" style="text;html=1;whiteSpace=wrap;strokeColor=none;fillColor=none;align=center;verticalAlign=middle;rounded=0;" vertex="1" parent="1">
          <mxGeometry x="120" y="260" width="70" height="30" as="geometry" />
        </mxCell>
        <mxCell id="sI21drN1dJWYwS98hzrH-89" value="&lt;b&gt;&lt;font style=&quot;background-color: light-dark(rgb(255, 255, 255), rgb(255, 255, 255)); color: light-dark(rgb(0, 0, 0), rgb(0, 0, 0));&quot;&gt;(Container)&lt;/font&gt;&lt;/b&gt;" style="text;html=1;whiteSpace=wrap;strokeColor=none;fillColor=none;align=center;verticalAlign=middle;rounded=0;" vertex="1" parent="1">
          <mxGeometry x="680" y="260" width="70" height="30" as="geometry" />
        </mxCell>
        <mxCell id="sI21drN1dJWYwS98hzrH-90" value="&lt;b&gt;&lt;font style=&quot;background-color: light-dark(rgb(255, 255, 255), rgb(255, 255, 255)); color: light-dark(rgb(0, 0, 0), rgb(0, 0, 0));&quot;&gt;K8s deployment + HPA&lt;/font&gt;&lt;/b&gt;" style="text;html=1;whiteSpace=wrap;strokeColor=none;fillColor=none;align=center;verticalAlign=middle;rounded=0;" vertex="1" parent="1">
          <mxGeometry x="750" y="285" width="160" height="30" as="geometry" />
        </mxCell>
        <mxCell id="sI21drN1dJWYwS98hzrH-92" value="&lt;b&gt;&lt;font style=&quot;background-color: light-dark(rgb(255, 255, 255), rgb(255, 255, 255)); color: light-dark(rgb(0, 0, 0), rgb(0, 0, 0));&quot;&gt;Block IP src&lt;/font&gt;&lt;/b&gt;" style="text;html=1;whiteSpace=wrap;strokeColor=none;fillColor=none;align=center;verticalAlign=middle;rounded=0;" vertex="1" parent="1">
          <mxGeometry x="77.5" y="440" width="85" height="30" as="geometry" />
        </mxCell>
        <mxCell id="sI21drN1dJWYwS98hzrH-94" value="&lt;b&gt;&lt;font style=&quot;background-color: light-dark(rgb(255, 255, 255), rgb(255, 255, 255)); color: light-dark(rgb(0, 0, 0), rgb(0, 0, 0));&quot;&gt;Email / Telegram&lt;/font&gt;&lt;/b&gt;&lt;div&gt;&lt;b&gt;&lt;font style=&quot;background-color: light-dark(rgb(255, 255, 255), rgb(255, 255, 255)); color: light-dark(rgb(0, 0, 0), rgb(0, 0, 0));&quot;&gt;(Notifications)&lt;/font&gt;&lt;/b&gt;&lt;/div&gt;" style="text;html=1;whiteSpace=wrap;strokeColor=none;fillColor=none;align=center;verticalAlign=middle;rounded=0;" vertex="1" parent="1">
          <mxGeometry x="575" y="440" width="115" height="30" as="geometry" />
        </mxCell>
        <mxCell id="sI21drN1dJWYwS98hzrH-95" value="&lt;b&gt;&lt;font style=&quot;background-color: light-dark(rgb(255, 255, 255), rgb(255, 255, 255)); color: light-dark(rgb(0, 0, 0), rgb(0, 0, 0));&quot;&gt;Kafka / DB (positive alerts)&lt;/font&gt;&lt;/b&gt;" style="text;html=1;whiteSpace=wrap;strokeColor=none;fillColor=none;align=center;verticalAlign=middle;rounded=0;" vertex="1" parent="1">
          <mxGeometry x="490" y="400" width="110" height="30" as="geometry" />
        </mxCell>
      </root>
    </mxGraphModel>
  </diagram>
</mxfile>
